<svg width="3114" height="567" viewBox="0 0 3114 567" fill="none" xmlns="http://www.w3.org/2000/svg">
<rect width="3114" height="567" fill="white"/>
<path d="M773.028 389.472C716.387 389.472 668.316 343.264 668.316 288.486C668.316 233.707 716.387 187.872 773.774 187.872C804.703 187.872 830.788 200.542 849.048 220.665L812.901 251.594C803.585 240.787 788.307 233.707 773.401 233.707C745.08 233.707 721.231 258.674 721.231 288.113C721.231 318.297 745.08 343.637 773.401 343.637C788.679 343.637 804.33 336.184 814.019 325.005L850.165 355.561C831.533 376.429 805.076 389.472 773.028 389.472ZM991.871 187.872C1033.98 187.872 1063.42 218.429 1063.42 262.401V385H1011.25V273.953C1011.25 250.104 995.97 233.707 974.357 233.707C951.626 233.707 934.112 250.104 934.112 270.972V385H879.706V124.523H934.112V215.82C946.036 198.679 967.277 187.872 991.871 187.872ZM1185.49 187.872C1235.8 187.872 1270.45 219.547 1270.45 269.854V385H1217.91V365.623C1204.12 380.901 1182.14 389.472 1160.9 389.472C1119.91 389.472 1088.6 364.877 1088.6 327.986C1088.6 289.976 1124 263.891 1168.35 263.891C1184 263.891 1201.51 267.245 1217.91 273.953V269.854C1217.91 249.358 1204.87 231.471 1173.19 231.471C1155.31 231.471 1138.54 237.434 1123.26 245.259L1105 209.113C1132.2 195.325 1158.66 187.872 1185.49 187.872ZM1173.19 351.835C1194.06 351.835 1213.81 342.146 1217.91 324.259V306.745C1205.61 301.901 1191.08 299.292 1176.17 299.292C1156.42 299.292 1140.4 310.844 1140.4 326.495C1140.4 342.146 1154.56 351.835 1173.19 351.835ZM1335.55 165.886C1318.78 165.886 1305.74 152.471 1305.74 136.075C1305.74 120.797 1318.78 107.009 1335.55 107.009C1351.57 107.009 1364.99 120.797 1364.99 136.075C1364.99 152.471 1351.57 165.886 1335.55 165.886ZM1307.97 385V192.344H1362.38V385H1307.97ZM1516.95 187.872C1558.68 187.872 1588.12 218.429 1588.12 262.401V385H1535.95V273.953C1535.95 250.104 1521.05 233.707 1499.43 233.707C1476.7 233.707 1458.82 250.104 1458.82 270.972V385H1404.41V192.344H1458.82V216.193C1470.37 199.052 1491.98 187.872 1516.95 187.872ZM1782.33 228.49C1795 203.523 1818.85 187.872 1848.29 187.872V233.707C1808.04 233.707 1782.33 256.811 1782.33 292.957V385H1727.92V192.344H1782.33V228.49ZM1962.57 347.363C1980.09 347.363 2000.21 339.538 2012.51 328.358L2043.07 359.66C2025.92 377.547 1992.76 389.472 1964.44 389.472C1907.05 389.472 1861.22 347.363 1861.22 288.113C1861.22 229.981 1905.19 187.872 1961.46 187.872C2021.83 187.872 2058.34 231.471 2058.34 303.019H1913.01C1917.86 329.104 1936.12 347.363 1962.57 347.363ZM1961.83 229.981C1937.61 229.981 1919.35 246.004 1913.39 270.599H2006.17C2001.7 246.75 1986.42 229.981 1961.83 229.981ZM2226.1 192.344H2280.5V364.505C2280.5 414.066 2237.65 449.094 2176.91 449.094C2143 449.094 2111.32 438.288 2091.95 423.382L2110.95 385C2123.62 396.179 2146.35 403.259 2168.71 403.259C2203.74 403.259 2226.1 387.236 2226.1 362.269V340.656C2210.82 359.66 2188.09 370.84 2162.38 370.84C2113.56 370.84 2076.67 332.83 2076.67 279.17C2076.67 225.509 2113.56 187.872 2162.38 187.872C2188.09 187.872 2213.05 200.17 2226.1 218.429V192.344ZM2179.52 325.005C2206.72 325.005 2226.1 306 2226.1 279.17C2226.1 252.339 2206.72 233.707 2179.52 233.707C2152.31 233.707 2132.94 252.339 2132.94 279.17C2132.94 306 2152.31 325.005 2179.52 325.005ZM2350.49 165.886C2333.72 165.886 2320.68 152.471 2320.68 136.075C2320.68 120.797 2333.72 107.009 2350.49 107.009C2366.51 107.009 2379.93 120.797 2379.93 136.075C2379.93 152.471 2366.51 165.886 2350.49 165.886ZM2322.91 385V192.344H2377.32V385H2322.91ZM2491.68 389.472C2461.12 389.472 2428.33 379.038 2404.85 360.406L2426.84 326.123C2446.96 340.283 2472.3 349.599 2492.8 349.599C2511.05 349.599 2520.74 342.891 2520.74 331.712C2520.74 319.415 2505.09 314.198 2484.22 308.981C2444.35 299.292 2413.8 288.486 2413.8 250.476C2413.8 213.957 2443.61 187.872 2489.07 187.872C2516.64 187.872 2543.47 197.561 2565.09 211.721L2544.97 246.75C2527.82 235.571 2506.96 227 2489.07 227C2474.54 227 2463.36 234.08 2463.36 244.887C2463.36 255.321 2474.16 258.302 2499.88 265.382C2533.41 273.953 2570.3 285.132 2570.3 327.24C2570.3 365.25 2539 389.472 2491.68 389.472ZM2693.25 337.302L2706.3 372.703C2695.12 382.764 2677.6 389.472 2662.32 389.472C2628.04 389.472 2604.19 365.25 2604.19 330.594V236.316H2577.73V192.344H2604.19V139.429H2656.73V192.344H2698.47V236.316H2656.73V322.023C2656.73 334.693 2664.56 343.637 2674.99 343.637C2682.45 343.637 2689.53 341.028 2693.25 337.302ZM2791.08 228.49C2803.75 203.523 2827.6 187.872 2857.04 187.872V233.707C2816.8 233.707 2791.08 256.811 2791.08 292.957V385H2736.68V192.344H2791.08V228.49ZM2933.57 452.076C2917.55 452.076 2898.54 447.231 2885.5 440.151L2897.05 402.887C2905.99 408.104 2916.06 411.458 2922.39 411.458C2932.45 411.458 2941.4 406.986 2946.61 398.042L2951.83 386.863L2871.71 192.344H2927.98L2978.66 327.613L3026.36 192.344H3081.88L3003.25 394.689C2988.35 432.326 2964.13 452.076 2933.57 452.076Z" fill="black"/>
<path d="M208.931 558.462C182.26 558.462 159.547 543.222 151.194 519.775L20.4809 154.746C16.3778 143.462 17.4036 131.299 23.2652 120.455C24.1444 118.99 25.0237 117.378 26.0495 115.913C26.7821 111.077 28.3941 106.241 30.8853 101.845C38.3588 88.2168 52.5731 78.1055 70.1578 74.149L95.9488 68.1408C94.7764 61.107 96.5349 53.4869 100.931 47.0392C106.646 38.6864 115.732 33.5575 124.817 33.5575C134.049 33.5575 142.402 38.6864 148.41 47.9184C149.582 49.8234 150.755 52.168 152.073 55.2454L252.16 32.0921C252.013 28.4287 252.16 22.4205 254.944 16.1193C259.34 6.44774 269.451 0 280.295 0C289.967 0 298.613 5.12888 304.035 13.9212C304.914 15.5332 306.086 17.2917 307.112 19.3432L317.516 16.9986C321.913 15.9728 326.602 15.3866 331.291 15.3866C354.444 15.3866 375.839 27.8425 384.778 46.1599L427.714 136.135C436.067 125.584 445.152 115.766 454.531 106.974C464.935 97.4487 480.761 84.6998 498.932 83.9671C499.225 83.9671 499.811 83.9671 499.811 83.9671C499.958 83.9671 503.621 84.1136 507.725 85.1394C510.509 85.8721 512.56 86.6048 512.707 86.6048L513.147 86.7514L513.586 87.0444C514.026 87.3375 514.612 87.4841 515.052 87.7771C515.345 87.9237 515.491 88.0702 515.638 88.0702C516.37 88.5098 516.957 88.9495 517.543 89.3891L517.836 89.5356C518.568 90.1218 519.155 90.5614 519.887 91.1475C520.034 91.2941 520.18 91.4406 520.327 91.5872C520.767 92.0268 521.206 92.4664 521.646 93.0526C521.792 93.1991 521.939 93.4922 522.085 93.6387C522.525 94.2249 522.818 94.6645 523.258 95.2507C523.404 95.5437 523.551 95.8368 523.844 96.1299C524.137 96.5695 524.43 97.1557 524.723 97.7418C524.87 98.0349 525.016 98.328 525.163 98.7676C525.456 99.3538 525.602 99.9399 525.895 100.673C526.042 100.966 526.042 101.259 526.189 101.552C526.482 102.578 526.628 103.457 526.775 104.483C527.947 113.715 523.844 121.481 522.525 123.679C522.379 123.826 513.879 138.187 482.52 200.466L479.296 207.06L477.244 211.456L470.65 225.671L534.981 360.341C541.429 373.822 542.015 388.769 536.739 402.251C535.421 405.621 533.809 408.699 531.757 411.776C531.171 414.853 530.292 417.931 529.119 420.861C523.844 434.196 513.293 444.601 499.372 450.023L234.429 553.773C226.222 556.85 217.577 558.462 208.931 558.462Z" fill="#390176"/>
<path d="M531.024 362.099L465.814 225.524L473.288 209.551L475.339 205.155L478.563 198.414C510.216 135.549 518.569 121.481 518.715 121.335C519.741 119.43 523.258 112.835 522.379 104.922C522.232 104.19 522.085 103.457 521.939 102.578C521.939 102.431 521.792 102.138 521.792 101.845C521.646 101.405 521.499 100.819 521.206 100.38C521.06 100.086 521.06 99.9399 520.913 99.6468C520.767 99.2072 520.474 98.7676 520.327 98.328C520.18 98.0349 520.034 97.8883 519.887 97.5953C519.594 97.1556 519.301 96.8626 519.008 96.2764C518.862 96.1299 518.715 95.9833 518.569 95.8368C518.275 95.3972 517.836 94.9576 517.396 94.6645C517.25 94.5179 517.25 94.3714 517.103 94.3714C516.517 93.9318 516.077 93.3456 515.491 93.0525L515.198 92.906C514.759 92.6129 514.172 92.1733 513.586 91.8802C513.44 91.7337 513.293 91.7337 513.147 91.5872C512.707 91.2941 512.267 91.1475 511.828 90.8545L511.681 90.7079C511.681 90.7079 509.63 90.1218 506.992 89.3891C503.328 88.3633 500.105 88.3633 500.105 88.3633C499.958 88.3633 499.665 88.3633 499.518 88.3633C482.813 89.096 467.719 101.259 457.901 110.344C446.764 120.602 436.506 132.032 427.274 144.488L381.261 48.2115C373.201 31.2129 353.272 19.7828 331.731 19.7828C327.335 19.7828 323.085 20.2224 318.982 21.2482L305.354 24.3255C303.595 21.1017 302.13 18.3174 300.811 16.2659C296.122 8.64582 288.795 4.39618 280.735 4.39618C271.503 4.39618 262.857 9.81814 259.194 17.8778C255.53 25.9375 256.996 34.1437 256.996 34.4368L257.142 35.316L149.729 60.0812C148.117 56.1246 146.505 52.6077 144.893 50.1165C139.764 42.0568 132.584 37.6606 124.964 37.6606C117.343 37.6606 109.43 42.0568 104.595 49.2372C99.9053 55.9781 98.7329 64.1843 101.224 71.2182L71.1835 78.1055C54.7711 82.0621 41.5826 91.4406 34.6952 103.896C32.3506 108.293 30.8852 112.835 30.299 117.525C29.1267 119.137 28.1009 120.748 27.0751 122.507C21.7997 132.179 20.9205 143.169 24.4374 153.28L155.151 518.31C162.917 540.144 184.019 554.212 208.931 554.212C216.99 554.212 225.05 552.747 232.817 549.669L497.76 445.92C510.509 440.937 520.18 431.412 525.016 419.103C526.189 416.025 527.068 412.948 527.654 409.871C529.706 406.94 531.317 403.863 532.783 400.492C537.472 388.183 536.886 374.555 531.024 362.099Z" fill="#390176"/>
<path d="M208.931 554.212C184.019 554.212 163.064 540.145 155.151 518.31L24.4375 153.28C20.774 143.169 21.6532 132.179 27.0752 122.507C33.9626 110.051 47.1511 100.673 63.417 96.8628L311.069 39.7124C315.172 38.6866 319.568 38.247 323.818 38.247C345.359 38.247 365.288 49.6771 373.348 66.6757L523.258 380.563C529.266 393.019 529.852 406.647 524.87 419.103C520.034 431.412 510.362 440.937 497.613 445.92L232.817 549.67C225.197 552.747 217.137 554.212 208.931 554.212Z" fill="#390176"/>
<path d="M496.148 441.816L231.205 545.566C201.604 557.143 169.218 544.247 159.4 516.991L28.6871 151.815C20.9205 130.127 37.1863 107.56 64.4427 101.259L312.094 44.1084C334.955 38.8329 360.452 49.8234 369.391 68.5804L519.301 382.468C530.438 405.768 520.327 432.438 496.148 441.816Z" fill="#8C5417"/>
<path d="M216.697 535.602C191.785 535.602 170.83 521.534 162.917 499.7L32.204 134.67C28.5406 124.559 29.4198 113.568 34.8418 103.897C41.7291 91.4409 54.9176 82.0624 71.1835 78.2524L318.835 21.102C322.938 20.0762 327.334 19.6366 331.584 19.6366C353.125 19.6366 373.055 31.0667 381.114 48.0652L531.024 361.953C537.032 374.409 537.619 388.037 532.636 400.493C527.8 412.802 518.129 422.327 505.38 427.309L240.437 531.059C232.817 533.99 224.757 535.602 216.697 535.602Z" fill="#390176"/>
<path d="M503.768 423.206L238.825 526.956C209.224 538.533 176.839 525.637 167.02 498.381L36.3072 133.204C28.5406 111.517 44.8065 88.9495 72.0629 82.6483L319.715 25.4979C342.575 20.2225 368.073 31.213 377.011 49.97L526.921 363.857C538.058 387.157 527.947 413.681 503.768 423.206Z" fill="#DCB266"/>
<g opacity="0.33">
<path opacity="0.6" d="M510.216 412.948L245.272 516.698C215.671 528.275 183.286 515.379 173.468 488.123L42.7549 122.947C39.8241 114.887 40.2637 106.534 43.4876 99.0609C35.1349 108.732 31.911 121.042 36.3072 133.205L167.02 498.234C176.839 525.491 209.224 538.386 238.825 526.809L503.768 423.06C515.198 418.663 523.404 410.311 527.801 400.346C523.258 405.768 517.396 410.164 510.216 412.948Z" fill="#231F1F"/>
</g>
<path opacity="0.33" d="M211.568 512.302C204.241 512.302 194.57 509.078 191.346 499.993L64.8824 147.272C61.3654 138.04 65.322 129.101 74.9936 125.145L75.2867 124.998L321.473 68.1408C322.938 67.8478 324.55 67.5547 326.309 67.5547C334.368 67.5547 341.842 71.8043 343.747 75.6144L491.019 383.933C491.166 384.226 491.312 384.52 491.459 384.959C493.071 388.183 495.562 393.165 494.683 398.88C493.364 407.087 485.158 410.31 482.08 411.483L222.412 510.25C218.895 511.569 215.232 512.302 211.568 512.302Z" fill="#231F1F"/>
<path opacity="0.33" d="M222.412 491.787C215.085 491.787 205.414 488.563 202.19 479.477L75.7264 126.757C72.2094 117.525 76.166 108.586 85.8376 104.629L86.1307 104.483L332.317 47.6255C333.782 47.3324 335.394 47.0393 337.153 47.0393C345.212 47.0393 352.686 51.289 354.591 55.099L501.863 363.418C502.01 363.711 502.156 364.004 502.303 364.444C503.915 367.668 506.406 372.65 505.527 378.365C504.208 386.571 496.002 389.795 492.924 390.967L233.256 489.735C229.739 491.054 225.929 491.787 222.412 491.787Z" fill="#231F1F"/>
<path opacity="0.33" d="M116.318 72.537C122.619 90.8545 131.704 114.154 131.704 114.154L154.565 111.81C154.565 111.81 141.523 75.3213 140.936 73.5628C140.643 72.8301 139.031 70.1924 137.126 67.5547L116.318 72.537Z" fill="#231F1F"/>
<path opacity="0.33" d="M289.088 82.7948L308.431 68.4339L307.405 39.5656L297.147 30.7733L271.65 36.6348L289.088 82.7948Z" fill="#231F1F"/>
<path d="M216.697 503.949C209.37 503.949 199.699 500.725 196.475 491.64L70.0113 138.919C66.4944 129.688 70.451 120.749 80.1226 116.792L80.4156 116.645L326.602 59.7882C328.067 59.4951 329.679 59.202 331.438 59.202C339.497 59.202 346.971 63.4517 348.876 67.2617L496.002 375.434C496.148 375.727 496.295 376.02 496.441 376.46C498.053 379.684 500.544 384.666 499.665 390.381C498.346 398.587 490.14 401.811 487.063 402.984L227.395 501.751C224.024 503.217 220.361 503.949 216.697 503.949Z" fill="#390176"/>
<path d="M216.697 499.406C210.836 499.406 203.069 496.915 200.725 490.174L74.2609 137.454C71.7698 131.006 73.9679 124.265 81.881 120.895L327.774 64.1843C328.947 63.8912 330.265 63.7446 331.584 63.7446C338.472 63.7446 344.04 67.4081 345.066 69.3131L492.192 377.486C493.657 380.416 496.295 384.959 495.562 389.795C494.683 395.803 487.649 398.148 485.304 399.027L226.076 497.648C222.852 498.82 219.775 499.406 216.697 499.406Z" fill="#AE947B"/>
<path d="M220.654 494.864C213.327 494.864 203.655 491.64 200.432 482.554L73.9679 129.981C70.451 120.749 74.4076 111.81 84.0792 107.853L84.3722 107.707L330.559 50.8492C332.024 50.5561 333.636 50.2631 335.394 50.2631C343.454 50.2631 350.928 54.5127 352.833 58.3227L499.958 366.495C500.105 366.788 500.251 367.081 500.398 367.521C502.01 370.745 504.501 375.727 503.622 381.442C502.303 389.648 494.097 392.872 491.019 394.045L231.351 492.812C227.981 494.131 224.317 494.864 220.654 494.864Z" fill="#390176"/>
<path d="M220.654 490.468C214.792 490.468 207.026 487.976 204.681 481.236L78.2175 128.369C75.7263 121.921 77.9244 115.18 85.8375 111.81L331.731 55.0989C332.903 54.8058 334.222 54.6592 335.541 54.6592C342.428 54.6592 347.997 58.3227 349.022 60.2277L496.148 368.4C497.614 371.331 500.251 375.874 499.519 380.709C498.639 386.718 491.605 389.062 489.261 389.942L229.886 488.709C226.809 489.881 223.731 490.468 220.654 490.468Z" fill="#ECE0D2"/>
<path opacity="0.33" d="M319.128 87.9237L214.939 114.154L176.692 115.766L152.806 101.112L147.677 97.7418L127.162 102.431C127.162 102.431 132.877 121.628 136.833 129.834C140.79 138.187 153.392 147.858 176.692 141.557C199.992 135.256 290.7 111.37 304.328 106.827C318.103 102.138 319.128 87.9237 319.128 87.9237Z" fill="#231F1F"/>
<path d="M166.874 134.23C152.66 134.23 143.134 128.075 139.031 116.352C134.342 102.871 125.843 80.1571 122.619 71.3647L102.836 75.6143L101.517 72.0974C98.733 64.917 99.9053 56.5642 104.595 49.5303C109.43 42.3499 117.344 37.9537 124.964 37.9537C132.73 37.9537 139.764 42.3499 144.893 50.4096C147.97 55.2454 151.048 63.7447 154.271 72.6836C157.202 80.7432 160.133 88.9494 163.357 95.1041C167.607 103.603 169.951 103.603 169.951 103.603C181.821 101.991 259.633 82.0621 282.787 75.3213C284.985 74.7351 286.304 73.5628 287.183 71.5113C290.553 63.5981 284.398 45.8668 278.83 34.5833L257.875 38.9795L256.996 34.4368C256.996 34.1437 255.53 25.9375 259.194 17.8778C262.857 9.81814 271.503 4.39618 280.735 4.39618C288.941 4.39618 296.268 8.79236 300.811 16.2659C308.284 28.4286 327.628 67.7012 319.275 87.9237C316.93 93.7852 312.388 97.5953 306.086 99.2072C283.373 104.776 203.216 126.17 186.51 131.153C179.33 133.058 172.735 134.23 166.874 134.23Z" fill="#390176"/>
<path d="M105.62 70.3391L125.403 66.0894C125.403 66.0894 137.273 97.742 143.281 114.887C149.289 132.032 168.046 132.032 185.191 126.903C202.336 121.774 282.64 100.38 305.061 94.9577C331.438 88.51 306.819 35.0231 297.001 18.7572C287.622 3.37055 268.719 8.05982 263.297 19.9295C260.22 26.8169 261.392 33.8508 261.392 33.8508L281.321 29.7477C281.321 29.7477 304.768 73.7095 284.106 79.7176C259.927 86.7515 182.7 106.388 170.684 108C158.668 109.758 149.436 65.3567 141.23 52.7544C125.55 28.4288 98.2935 51.8751 105.62 70.3391Z" fill="#FFF2C1"/>
<path opacity="0.33" d="M315.172 85.7257C316.344 81.7691 313.56 77.0798 310.922 81.3295C308.138 85.8722 297.88 88.3634 288.355 91.2942C278.683 94.225 221.093 109.319 200.138 114.594C179.183 119.869 169.658 124.412 159.986 122.361C150.315 120.162 147.97 111.517 141.962 93.7853C135.954 76.0541 129.066 49.677 121.446 54.3662C111.775 60.2278 105.181 56.1247 114.266 45.8669C106.646 51.1424 101.957 61.4001 105.474 70.4856L125.256 66.2359C125.256 66.2359 137.126 97.8884 143.134 115.034C149.142 132.179 167.899 132.179 185.045 127.05C202.19 121.921 282.493 100.526 304.914 95.1042C310.189 93.4923 313.56 90.1219 315.172 85.7257Z" fill="#231F1F"/>
<path opacity="0.33" d="M276.778 20.6621C271.063 25.2048 264.469 20.9552 267.253 14.0678C265.495 15.6797 264.029 17.5848 263.004 19.7828C259.926 26.6702 261.099 33.7041 261.099 33.7041L281.028 29.601C281.028 29.601 302.13 69.1666 286.596 78.3986C286.596 78.3986 286.596 78.3986 286.743 78.3986C309.31 71.8044 294.363 44.8411 290.407 33.2645C286.596 21.5413 282.493 16.1194 276.778 20.6621Z" fill="#231F1F"/>
<path d="M125.403 66.0893C122.033 60.5208 116.318 65.3566 116.318 67.9943L125.403 66.0893Z" fill="#390176"/>
<path d="M281.175 29.6012C281.175 29.6012 275.606 21.8346 270.038 32.0924L281.175 29.6012Z" fill="#390176"/>
<path d="M352.832 134.23L163.503 183.468C161.159 184.054 158.521 182.735 157.788 180.537C156.909 178.339 158.228 175.994 160.573 175.408L349.462 126.903C351.513 126.317 354.005 127.636 355.03 129.541C355.763 131.593 354.884 133.644 352.832 134.23Z" fill="#C6C5C0"/>
<path d="M141.669 190.208C140.204 190.648 138.592 190.355 137.273 189.769C135.954 189.036 134.928 188.01 134.342 186.691C133.902 185.373 133.902 183.907 134.635 182.735C134.782 182.442 134.928 182.149 135.221 181.856C135.368 181.563 135.661 181.416 135.954 181.123C136.247 180.83 136.54 180.683 136.833 180.537C138.445 179.804 140.497 179.804 142.109 180.683C143.428 181.416 144.453 182.442 145.039 183.761C145.479 185.079 145.479 186.545 144.746 187.717C144.6 188.01 144.453 188.303 144.16 188.596C144.014 188.889 143.721 189.036 143.428 189.329C143.134 189.622 142.841 189.769 142.548 189.915C142.255 189.915 141.962 190.062 141.669 190.208Z" fill="#C6C5C0"/>
<path d="M378.623 188.303L185.777 242.083C183.433 242.816 180.795 241.351 179.916 239.006C179.037 236.661 180.209 234.317 182.7 233.584L374.96 180.537C377.011 179.951 379.649 181.269 380.675 183.321C381.554 185.519 380.675 187.717 378.623 188.303Z" fill="#C6C5C0"/>
<path d="M163.503 249.41C162.038 249.85 160.426 249.703 159.107 248.971C157.788 248.238 156.616 247.066 156.176 245.6C155.737 244.135 155.737 242.669 156.47 241.351C156.616 241.057 156.763 240.764 157.056 240.471C157.202 240.178 157.495 239.885 157.788 239.739C158.082 239.446 158.375 239.299 158.668 239.152C160.28 238.273 162.331 238.42 164.09 239.299C165.408 240.032 166.581 241.204 167.02 242.669C167.607 244.135 167.46 245.6 166.727 246.919C166.581 247.212 166.434 247.505 166.141 247.798C165.995 248.091 165.702 248.384 165.408 248.531C165.115 248.824 164.822 248.971 164.529 249.117C164.09 249.264 163.797 249.41 163.503 249.41Z" fill="#C6C5C0"/>
<path d="M405.587 245.161L209.224 303.923C206.733 304.656 204.095 303.19 203.069 300.846C202.19 298.354 203.362 295.863 205.853 295.131L401.777 237.101C403.975 236.515 406.466 237.834 407.638 240.032C408.664 242.23 407.785 244.574 405.587 245.161Z" fill="#C6C5C0"/>
<path d="M186.51 311.982C185.045 312.422 183.433 312.276 181.967 311.543C180.502 310.81 179.476 309.491 178.89 308.026C178.304 306.56 178.451 304.949 179.037 303.63C179.183 303.337 179.33 303.044 179.623 302.75C179.769 302.457 180.062 302.164 180.356 302.018C180.649 301.725 180.942 301.578 181.235 301.432C182.847 300.552 185.045 300.552 186.803 301.432C188.269 302.164 189.294 303.483 189.881 304.949C190.467 306.414 190.32 308.026 189.734 309.345C189.588 309.638 189.441 309.931 189.148 310.224C189.001 310.517 188.708 310.81 188.415 310.957C188.122 311.25 187.829 311.396 187.536 311.543C187.243 311.836 186.803 311.982 186.51 311.982Z" fill="#C6C5C0"/>
<path d="M434.162 305.095L233.989 369.426C231.498 370.159 228.713 368.694 227.688 366.202C226.662 363.565 227.981 360.927 230.472 360.048L430.059 296.596C432.257 295.863 434.894 297.182 436.067 299.673C437.093 301.872 436.36 304.363 434.162 305.095Z" fill="#C6C5C0"/>
<path d="M210.836 378.218C209.37 378.658 207.612 378.511 206.146 377.779C204.681 377.046 203.509 375.727 202.922 374.115C202.336 372.503 202.336 370.745 203.069 369.426C203.216 369.133 203.362 368.693 203.655 368.4C203.802 368.107 204.095 367.814 204.388 367.521C204.681 367.228 204.974 367.081 205.267 366.788C207.026 365.763 209.224 365.909 210.982 366.788C212.448 367.521 213.62 368.84 214.206 370.452C214.792 372.064 214.792 373.676 214.059 375.141C213.913 375.434 213.766 375.874 213.473 376.167C213.327 376.46 213.034 376.753 212.741 377.046C212.448 377.339 212.154 377.486 211.861 377.779C211.568 377.925 211.129 378.072 210.836 378.218Z" fill="#C6C5C0"/>
<path d="M271.356 421.155C267.546 421.155 264.323 419.543 262.124 416.612C254.651 406.061 260.512 380.71 278.683 344.954C279.123 344.221 280.002 343.928 280.735 344.221C281.468 344.661 281.761 345.54 281.468 346.273C256.849 394.777 261.538 410.311 264.616 414.707C266.521 417.345 269.305 418.37 272.968 417.931C283.373 416.612 298.759 402.544 306.526 381.589C306.819 380.71 307.112 379.977 307.405 379.244C306.086 374.408 305.793 368.547 307.405 362.685C308.431 358.582 311.362 349.204 314.586 348.471C315.318 348.324 316.197 348.471 316.637 349.204C319.714 352.574 313.853 370.452 310.776 379.537C311.801 382.908 313.56 385.692 315.465 387.45C316.93 388.916 319.421 390.381 322.059 389.355C326.602 387.744 330.265 380.27 332.024 368.84C332.756 364.297 335.394 349.497 339.79 347.738C340.67 347.445 341.549 347.592 342.135 348.031C343.747 349.35 344.04 353.014 343.014 359.022C341.549 366.202 342.721 369.719 344.48 370.745C345.798 371.478 347.703 370.892 349.462 369.28C351.807 367.081 354.298 362.392 353.858 355.358C352.686 356.531 351.513 357.556 350.048 358.289C347.557 359.608 345.945 358.582 345.212 357.263C343.014 353.6 346.385 342.316 349.462 340.265C350.781 339.532 352.246 339.825 353.125 341.144L353.272 341.291C354.298 343.342 355.03 345.394 355.617 347.299C356.203 346.126 356.789 344.954 357.522 343.782C359.573 339.972 361.771 335.575 364.995 331.472C368.072 327.662 370.417 327.223 371.882 327.516C373.348 327.809 374.52 328.835 375.106 330.447C376.425 333.817 375.399 340.411 370.271 346.566C367.047 350.376 366.754 353.746 367.633 355.651C368.072 356.677 368.952 357.41 369.977 357.41C371.882 357.556 374.227 355.651 375.986 352.428C381.994 342.023 392.984 317.551 392.984 317.258C393.277 316.525 394.303 316.086 395.036 316.525C395.768 316.818 396.208 317.844 395.768 318.577C395.622 318.87 384.631 343.489 378.623 354.039C376.132 358.436 372.908 360.78 369.684 360.634C367.486 360.487 365.581 359.168 364.702 356.97C363.237 353.453 364.409 348.764 367.926 344.661C372.029 339.679 373.201 334.257 372.322 331.619C372.176 331.179 371.882 330.74 371.443 330.593C370.71 330.447 369.391 331.179 367.486 333.524C364.409 337.334 362.357 341.437 360.306 345.247C359.134 347.592 357.961 349.79 356.642 351.841C358.254 360.634 355.763 367.814 351.807 371.624C349.022 374.262 345.652 374.995 343.161 373.529C339.644 371.478 338.471 366.056 340.083 358.436C340.67 354.479 340.67 352.281 340.523 351.255C339.351 352.867 337.153 357.849 335.248 369.28C332.61 385.839 327.334 390.967 323.231 392.286C320.008 393.459 316.491 392.433 313.413 389.649C311.801 388.183 310.336 386.132 309.31 383.787C300.811 406.208 284.692 419.689 273.555 421.155C272.675 421.008 272.089 421.155 271.356 421.155ZM314.439 352.574C313.413 354.333 311.948 357.703 310.482 363.271C309.603 366.642 309.31 370.012 309.603 373.09C313.267 361.66 314.292 355.358 314.439 352.574ZM350.634 343.489C349.755 344.661 348.29 348.178 347.703 351.988C347.41 354.626 347.703 355.651 347.85 355.944C347.85 355.944 347.997 355.945 348.436 355.651C350.341 354.626 351.807 353.16 353.125 351.255C352.686 348.618 351.807 346.126 350.634 343.489Z" fill="#390176"/>
<path d="M511.535 90.7082L511.681 90.8547C512.121 91.0012 512.561 91.2943 513 91.5874C513.293 91.7339 513.44 91.7339 513.44 91.8805C514.026 92.1735 514.466 92.6132 515.052 92.9062L515.345 93.0528C515.784 93.4924 516.371 93.932 516.957 94.3716C517.103 94.5182 517.25 94.6647 517.25 94.6647C517.689 95.1043 517.982 95.3974 518.422 95.837C518.569 95.9836 518.715 96.1301 518.862 96.2767C519.301 96.7163 519.448 97.1559 519.741 97.5955C519.887 97.742 520.034 98.0351 520.181 98.3282C520.474 98.7678 520.62 99.2074 520.767 99.6471C520.913 99.9401 521.06 100.233 521.06 100.38C521.206 100.819 521.499 101.406 521.646 101.845C521.792 102.138 521.792 102.285 521.792 102.578C521.939 103.457 522.086 104.19 522.232 104.922C523.258 112.836 519.741 119.43 518.569 121.335C518.422 121.481 510.069 135.549 478.417 198.415L475.193 205.155L473.141 209.552L463.909 229.481C462.884 231.533 462.004 233.584 460.979 235.636L458.194 241.351L456.289 245.161L454.531 248.531L453.359 250.729L452.186 252.927L450.867 255.272L449.842 257.177L448.523 259.375L448.083 260.254L446.911 262.013L445.738 263.771L445.445 264.357C445.006 264.944 444.566 265.676 444.127 266.262L443.687 266.995C443.394 267.435 443.101 267.728 442.808 268.167L442.661 268.314L441.929 269.047C441.635 269.34 441.489 269.633 441.342 269.779C440.903 270.219 440.61 270.659 440.17 271.098L438.851 272.417L438.558 272.71C438.412 272.857 438.118 273.15 437.825 273.296L437.386 273.736C439.73 272.857 441.929 271.831 444.127 270.659L454.238 265.237L450.428 276.081C448.523 281.503 444.127 285.899 437.532 288.83C438.412 288.683 439.291 288.683 440.17 288.536L447.057 287.657L444.859 294.398C443.101 299.966 436.507 301.285 430.059 301.578L437.825 304.509L425.663 308.466C424.197 308.905 422.732 309.198 421.266 309.198C419.948 309.198 418.629 309.052 417.456 308.759L408.078 308.905C406.319 308.905 405.001 308.612 403.828 308.026C402.802 311.397 401.923 314.767 400.897 318.137L400.751 318.87L375.693 357.557L382.58 331.179C384.632 323.413 386.83 315.5 389.174 307.733C388.002 308.173 386.83 308.319 385.657 308.319C384.338 308.319 382.873 308.026 381.261 307.587L369.538 303.923L380.822 299.234C381.554 298.941 382.287 298.648 383.02 298.208C380.528 297.622 378.184 296.303 374.96 294.398L364.849 283.701L378.037 286.192C378.623 286.338 379.21 286.338 379.796 286.485C373.348 281.063 372.615 275.348 373.495 268.314L375.986 254.686C376.279 252.341 377.012 250.143 377.744 248.238L379.21 243.988L379.796 242.23L385.218 225.671L385.364 228.162C386.097 225.378 386.976 222.594 387.709 220.102C401.044 178.485 425.956 139.506 457.755 110.198C467.573 101.112 482.666 88.9497 499.372 88.217C499.518 88.217 499.812 88.217 499.958 88.217C499.958 88.217 503.182 88.3635 506.845 89.2428C509.483 90.122 511.535 90.7082 511.535 90.7082Z" fill="#390176"/>
<path d="M517.982 105.508C517.836 104.922 517.836 104.336 517.689 103.75C517.689 103.603 517.543 103.457 517.543 103.164C517.396 102.724 517.25 102.431 517.103 102.138C516.957 101.991 516.957 101.698 516.81 101.552C516.664 101.259 516.517 100.966 516.37 100.673C516.224 100.526 516.224 100.379 516.077 100.086C515.931 99.7933 515.638 99.5003 515.491 99.2072C515.345 99.0606 515.198 98.9141 515.198 98.7676C514.905 98.4745 514.612 98.1814 514.319 97.8883C514.172 97.7418 514.172 97.7418 514.026 97.5952C513.586 97.1556 513.147 96.8625 512.707 96.5695C512.707 96.5695 512.707 96.5695 512.56 96.5695C512.121 96.2764 511.681 95.9833 511.242 95.6902C511.095 95.5437 510.949 95.5437 510.802 95.3972C510.509 95.2506 510.069 94.9575 509.776 94.811C509.776 94.811 509.63 94.811 509.63 94.6645C506.552 93.1991 503.035 92.6129 499.518 92.7594C485.304 93.3456 471.969 103.017 460.685 113.568C429.326 142.436 405 180.537 391.958 221.568C389.614 229.041 387.562 236.661 386.976 244.281C386.39 251.901 386.83 257.909 388.002 262.745C388.148 263.185 388.148 263.478 388.295 263.771C388.442 264.504 388.735 265.09 388.881 265.676C389.028 266.116 389.174 266.555 389.321 266.995C389.467 267.434 389.614 267.728 389.76 268.021C389.907 268.314 390.053 268.607 390.2 268.9C390.347 269.193 390.493 269.633 390.786 269.926C390.933 270.219 391.079 270.512 391.226 270.805C391.372 271.098 391.665 271.391 391.812 271.684C391.958 271.977 392.105 272.124 392.252 272.417C392.398 272.71 392.691 273.003 392.838 273.296C392.984 273.443 393.131 273.736 393.424 273.882C394.01 274.468 394.45 275.055 395.036 275.494L395.182 275.641C395.475 275.787 395.768 276.08 395.915 276.227C396.062 276.373 396.208 276.52 396.501 276.666C396.794 276.813 397.087 276.96 397.234 277.253C397.38 277.399 397.673 277.546 397.82 277.546C397.967 277.546 397.967 277.692 398.113 277.692C394.743 276.08 391.519 273.736 388.588 270.072C382.726 262.745 381.701 253.953 381.554 249.557C379.063 256.737 378.623 263.918 384.485 273.15C389.174 280.623 397.673 282.382 400.458 283.407C397.82 283.407 392.984 283.114 388.002 280.183C381.847 276.666 378.77 271.391 377.598 268.9C376.572 276.08 377.744 280.037 384.192 284.58C389.907 288.683 398.26 286.338 400.458 286.192C398.26 287.51 395.182 288.976 391.519 290.002C385.218 291.76 380.089 291.174 377.011 290.734C383.166 294.398 384.631 294.691 390.347 294.251C393.57 293.958 396.501 291.32 398.846 290.588C397.234 292.639 394.889 295.13 391.812 297.622C388.148 300.552 384.778 302.311 382.287 303.337C386.683 304.656 388.148 303.483 392.984 300.552C394.596 299.527 395.768 298.501 396.941 297.475C392.691 310.517 389.467 322.24 386.83 332.351C390.2 327.076 393.717 321.801 397.087 316.525C398.846 310.371 400.604 304.216 402.656 297.768C402.802 298.061 402.949 298.208 402.949 298.501C404.854 301.871 404.414 304.216 408.664 304.069C407.638 302.75 406.173 300.552 405.587 297.182C405.294 295.717 405.294 294.398 405.294 293.225C406.905 295.277 409.543 299.527 412.474 301.139C415.405 302.604 419.508 305.535 424.49 303.923C421.413 302.75 417.31 300.845 413.353 297.475C411.009 295.57 408.371 293.372 406.905 291.614C410.129 293.372 416.577 297.182 424.93 297.035C431.671 296.889 439.73 296.742 440.903 292.786C436.36 293.372 430.645 293.665 424.197 293.079C417.163 292.346 411.448 290.734 407.052 288.976C411.595 289.122 416.577 289.269 425.663 287.657C435.041 286.045 443.833 282.088 446.471 274.468C440.463 277.692 428.447 282.968 414.086 281.649C412.327 281.502 410.276 281.209 407.931 280.916C407.931 280.77 408.078 280.623 408.078 280.476C408.371 280.476 408.664 280.476 408.81 280.476C408.957 280.476 409.104 280.476 409.104 280.476C409.69 280.476 410.129 280.476 410.715 280.476C410.862 280.476 411.009 280.476 411.302 280.476C411.595 280.476 411.741 280.476 411.888 280.476C412.034 280.476 412.181 280.476 412.474 280.476C412.621 280.476 412.914 280.476 413.06 280.476C413.207 280.476 413.353 280.476 413.5 280.476C413.646 280.476 413.939 280.477 414.086 280.33C414.232 280.33 414.379 280.33 414.526 280.183C414.672 280.183 414.819 280.183 414.965 280.037C415.112 280.037 415.405 279.89 415.551 279.89C415.698 279.89 415.991 279.744 416.137 279.744C416.284 279.744 416.431 279.744 416.577 279.597C416.724 279.597 416.724 279.597 416.87 279.451C417.017 279.451 417.017 279.451 417.163 279.304C417.31 279.304 417.31 279.304 417.456 279.304C417.603 279.304 417.603 279.304 417.749 279.158H417.896C418.042 279.158 418.042 279.158 418.042 279.158C418.042 279.158 418.042 279.158 418.189 279.158H418.336C418.336 279.158 418.336 279.158 418.482 279.158C418.629 279.158 418.629 279.158 418.922 279.011H419.068C419.215 279.011 419.361 278.865 419.654 278.865C419.801 278.865 419.801 278.865 419.948 278.865C420.094 278.865 420.387 278.718 420.68 278.571H420.827H420.973C421.12 278.571 421.266 278.425 421.266 278.425H421.413C421.559 278.425 421.706 278.278 421.852 278.278C421.999 278.278 421.999 278.278 422.146 278.132C422.439 277.985 422.732 277.985 422.878 277.839H423.025C423.611 277.546 424.197 277.399 424.783 277.106C424.93 277.106 424.93 277.106 425.076 276.96C425.369 276.813 425.663 276.666 425.809 276.52C425.809 276.52 425.956 276.52 425.956 276.373C426.102 276.373 426.102 276.227 426.249 276.227C426.542 276.08 426.688 275.934 426.981 275.787C427.128 275.787 427.128 275.641 427.274 275.641C427.421 275.641 427.421 275.494 427.568 275.494C427.714 275.348 427.861 275.348 428.007 275.201C428.007 275.201 428.154 275.201 428.154 275.055C428.3 275.055 428.3 274.908 428.447 274.908C428.74 274.761 429.033 274.468 429.326 274.322C429.326 274.322 429.473 274.322 429.473 274.175C429.473 274.175 429.619 274.175 429.619 274.029C429.912 273.882 430.205 273.589 430.498 273.443C430.645 273.443 430.645 273.296 430.791 273.15C430.791 273.15 430.938 273.15 430.938 273.003C431.085 272.856 431.231 272.856 431.378 272.71C431.524 272.563 431.671 272.563 431.817 272.417L431.964 272.27C432.257 272.124 432.403 271.977 432.696 271.684C432.843 271.538 432.99 271.538 432.99 271.391C433.136 271.244 433.136 271.245 433.283 271.098C433.576 270.805 433.869 270.658 434.162 270.365C434.308 270.219 434.308 270.219 434.455 270.072C434.601 269.926 434.601 269.926 434.748 269.779C435.041 269.486 435.188 269.34 435.481 269.046C435.627 269.046 435.627 268.9 435.774 268.9C435.92 268.753 435.92 268.753 436.067 268.607C436.213 268.46 436.36 268.314 436.506 268.167L436.653 268.021C436.8 267.874 436.8 267.874 436.946 267.728C437.386 267.288 437.679 266.995 438.118 266.555C438.265 266.409 438.411 266.116 438.558 265.969C438.558 265.969 438.558 265.969 438.558 265.823C438.705 265.676 438.851 265.529 438.851 265.383C438.851 265.383 438.851 265.383 438.998 265.236C438.998 265.09 439.144 265.09 439.144 264.943C439.437 264.65 439.73 264.211 439.877 263.918C440.023 263.771 440.17 263.478 440.316 263.331C440.756 262.745 441.049 262.159 441.489 261.573C441.635 261.426 441.782 261.28 441.782 261.133C441.928 260.84 442.221 260.547 442.368 260.254C442.515 259.961 442.661 259.814 442.808 259.521C442.954 259.228 443.247 258.935 443.394 258.496C443.54 258.202 443.687 257.909 443.833 257.763C443.98 257.47 444.273 257.03 444.42 256.737C444.566 256.444 444.713 256.151 444.859 255.858C445.006 255.565 445.299 255.125 445.445 254.832C445.592 254.539 445.738 254.246 445.885 253.953C446.031 253.66 446.325 253.22 446.471 252.781C446.618 252.487 446.764 252.194 447.057 251.901C447.204 251.462 447.497 251.169 447.643 250.729C447.79 250.436 447.937 250.143 448.23 249.703C448.376 249.264 448.669 248.971 448.816 248.531C448.962 248.238 449.109 247.945 449.402 247.505C449.548 247.065 449.842 246.626 449.988 246.333C450.135 246.04 450.281 245.6 450.574 245.307C450.721 244.867 451.014 244.428 451.16 243.988C451.307 243.695 451.453 243.255 451.747 242.962C451.893 242.523 452.186 242.083 452.333 241.644C452.479 241.35 452.626 240.911 452.772 240.618C453.065 240.178 453.212 239.739 453.505 239.299C453.652 239.006 453.798 238.713 453.945 238.273C454.238 237.834 454.384 237.247 454.677 236.808C454.824 236.515 454.97 236.222 455.117 235.928C455.41 235.489 455.557 234.903 455.85 234.463C455.996 234.17 456.143 233.877 456.289 233.73C457.315 231.679 458.194 229.627 459.22 227.576C459.22 227.429 459.367 227.283 459.367 227.136C459.66 226.55 459.953 225.964 460.246 225.231C460.392 224.938 460.392 224.791 460.539 224.498C460.832 223.912 461.125 223.18 461.418 222.593C461.418 222.447 461.565 222.3 461.565 222.154C461.858 221.421 462.151 220.835 462.444 220.102C462.444 219.956 462.59 219.809 462.59 219.663C463.47 217.904 464.202 216.146 464.935 214.534C465.082 214.387 465.082 214.094 465.228 213.948C465.521 213.361 465.814 212.775 465.961 212.336C466.107 212.043 466.254 211.749 466.4 211.456C466.694 211.017 466.84 210.577 466.987 209.991C467.133 209.698 467.28 209.405 467.426 208.965C467.573 208.526 467.866 208.086 468.012 207.646C468.159 207.353 468.305 207.06 468.452 206.621C468.599 206.181 468.892 205.741 469.038 205.302C469.185 205.009 469.331 204.716 469.478 204.423C469.624 203.983 469.917 203.543 470.064 203.104C470.211 202.811 470.357 202.517 470.504 202.224C470.65 201.785 470.943 201.345 471.09 200.906C471.236 200.612 471.383 200.319 471.529 200.026C471.676 199.587 471.969 199.294 472.116 198.854C472.262 198.561 472.409 198.268 472.555 198.121C472.848 197.535 473.141 196.802 473.434 196.216C505.673 132.179 513.733 118.843 513.733 118.843C516.224 116.792 518.715 111.37 517.982 105.508Z" fill="#390176"/>
<path d="M381.701 249.557C379.21 256.737 378.77 263.918 384.632 273.15C389.321 280.623 397.82 282.382 400.604 283.407C397.967 283.407 393.131 283.114 388.149 280.184C381.994 276.667 378.917 271.391 377.744 268.9C376.718 276.081 377.891 280.037 384.339 284.58C390.054 288.683 398.406 286.338 400.604 286.192C398.406 287.511 395.329 288.976 391.665 290.002C385.364 291.76 380.235 291.174 377.158 290.734C383.313 294.398 384.778 294.691 390.493 294.251C393.717 293.958 396.648 291.321 398.992 290.588C397.381 292.639 395.036 295.131 391.959 297.622C388.295 300.553 384.925 302.311 382.434 303.337C386.83 304.656 388.295 303.483 393.131 300.553C397.82 297.622 400.165 293.519 401.044 292.053C401.191 293.519 401.63 296.01 403.096 298.501C405.001 301.871 404.561 304.216 408.811 304.07C407.785 302.751 406.319 300.553 405.733 297.182C405.44 295.717 405.44 294.398 405.44 293.226C407.052 295.277 409.69 299.527 412.621 301.139C415.551 302.604 419.655 305.535 424.637 303.923C421.56 302.751 417.456 300.846 413.5 297.475C411.155 295.57 408.518 293.372 407.052 291.614C410.276 293.372 416.724 297.182 425.077 297.036C431.817 296.889 439.877 296.743 441.049 292.786C436.507 293.372 430.792 293.665 424.344 293.079C417.31 292.346 411.595 290.734 407.199 288.976C411.741 289.123 416.724 289.269 425.809 287.657C435.188 286.045 443.98 282.089 446.618 274.469C440.61 277.692 428.593 282.968 414.233 281.649C407.345 281.063 396.355 279.891 388.588 270.219C382.873 262.745 381.847 254.1 381.701 249.557Z" fill="white"/>
<path d="M386.976 244.281C387.562 236.661 389.614 229.041 391.959 221.568C405.147 180.537 429.326 142.436 460.686 113.568C471.969 103.164 485.304 93.3456 499.518 92.7594C507.871 92.4663 516.81 96.716 517.982 105.362C518.715 111.223 516.371 116.645 514.905 118.99C514.905 118.99 506.845 132.325 474.607 196.363C464.496 216.439 448.669 255.125 438.412 266.555C429.18 276.813 418.336 279.011 418.336 279.011C418.336 279.011 383.459 290.881 386.976 244.281Z" fill="white"/>
<path opacity="0.33" d="M439.437 265.383C439.73 264.943 440.17 264.504 440.463 264.064C450.721 250.143 465.228 215.12 474.607 196.51C506.845 132.472 514.905 119.137 514.905 119.137C516.224 116.792 518.715 111.37 517.982 105.509C517.396 100.38 514.026 96.8627 509.63 94.8112C510.948 97.1558 511.681 99.7935 511.828 102.431C511.974 110.051 507.725 117.085 503.768 123.679C480.615 162.366 459.953 202.518 442.368 243.988C436.506 248.531 429.619 251.462 422.292 252.341C420.094 252.634 416.577 252.048 415.551 253.66C415.112 254.246 415.405 254.832 415.112 256.151C414.819 257.47 414.232 258.349 413.939 259.082C423.025 257.763 429.619 254.832 433.283 252.781C437.386 250.583 439.877 248.531 441.049 247.359C440.023 249.85 438.851 252.488 437.825 255.125C435.774 257.47 430.498 262.892 421.706 264.797C417.163 265.823 413.207 265.53 410.569 265.09C409.836 267.288 409.104 269.486 408.371 271.684C412.914 271.391 419.068 270.512 425.956 267.435C429.326 265.969 432.11 264.211 434.455 262.599C434.308 263.038 434.162 263.332 433.869 263.771C429.033 268.46 422.732 271.831 416.284 274.029C414.526 274.615 412.767 275.055 411.009 275.201C407.931 275.494 404.707 274.762 401.923 273.589C396.355 271.391 391.372 267.435 388.002 262.452C393.863 287.217 418.336 278.865 418.336 278.865C418.336 278.865 419.215 278.718 420.827 278.132C421.12 277.985 421.266 277.985 421.559 277.839C421.852 277.692 422.146 277.692 422.292 277.546C422.585 277.399 422.878 277.399 423.025 277.253H423.171C423.757 276.96 424.344 276.813 424.93 276.374C425.076 276.374 425.076 276.374 425.223 276.227C425.516 276.08 425.809 275.934 425.956 275.787C425.956 275.787 426.102 275.787 426.102 275.641C426.395 275.494 426.688 275.348 427.128 275.055C427.274 275.055 427.274 274.908 427.421 274.908C427.714 274.762 428.007 274.615 428.3 274.469C428.447 274.469 428.447 274.322 428.593 274.322C428.886 274.175 429.326 273.882 429.619 273.736C429.619 273.736 429.766 273.736 429.766 273.589C430.059 273.443 430.352 273.15 430.645 273.003C430.791 273.003 430.791 272.857 430.938 272.71C431.231 272.564 431.524 272.27 431.817 271.977L431.964 271.831C432.257 271.538 432.696 271.245 432.989 270.952C433.136 270.805 433.136 270.805 433.283 270.658C433.576 270.365 433.869 270.219 434.162 269.926C434.308 269.779 434.308 269.779 434.455 269.633C434.895 269.34 435.188 269.047 435.627 268.607C435.774 268.607 435.774 268.46 435.92 268.46C436.213 268.167 436.506 267.874 436.8 267.581C436.946 267.435 436.946 267.435 437.093 267.288C437.532 266.848 437.825 266.555 438.265 266.116C438.411 265.969 438.558 265.676 438.705 265.53C438.705 265.53 438.705 265.53 438.705 265.383C439.144 265.823 439.291 265.53 439.437 265.383Z" fill="#231F1F"/>
<path opacity="0.33" d="M423.904 230.067C424.197 230.067 424.344 230.067 424.637 230.067C425.223 228.602 425.956 227.283 426.542 225.964C425.076 224.059 423.611 221.861 422.292 219.37C419.654 214.387 418.189 209.698 417.31 206.035C417.603 209.991 418.336 214.68 419.948 220.102C421.12 223.766 422.585 227.136 423.904 230.067Z" fill="#231F1F"/>
<path opacity="0.33" d="M422.732 234.756C422.585 234.756 422.585 234.61 422.439 234.61C422.439 234.756 422.292 234.903 422.292 235.049C419.361 231.679 414.818 225.524 412.034 216.732C409.836 209.551 409.543 203.397 409.836 199.294C408.81 204.276 407.638 214.534 411.888 226.11C414.232 232.265 417.31 236.808 419.947 239.885C420.094 240.032 420.24 240.178 420.24 240.471C420.827 239.006 421.413 237.54 422.145 236.222C422.292 235.635 422.439 235.196 422.732 234.756Z" fill="#231F1F"/>
<path opacity="0.33" d="M410.129 262.892C409.983 262.599 409.836 262.306 409.836 262.159C406.759 259.961 401.777 256.005 397.82 249.264C393.131 241.351 392.252 233.731 392.105 229.921C391.959 233.731 392.252 238.273 393.57 243.549C396.648 256.444 404.121 264.944 408.371 269.047C409.104 267.288 409.983 265.383 410.716 263.625C410.422 263.478 410.276 263.185 410.129 262.892Z" fill="#231F1F"/>
<path opacity="0.33" d="M439.73 202.811C439.584 202.664 439.437 202.518 439.291 202.371C439.877 200.906 440.316 199.44 440.756 197.975C443.101 197.682 445.592 197.096 448.376 196.216C453.798 194.458 458.048 192.113 461.125 189.915C458.194 192.553 454.384 195.484 449.548 198.268C446.032 200.32 442.661 201.785 439.73 202.811Z" fill="#231F1F"/>
<path d="M494.096 106.388C491.752 106.388 491.459 106.388 483.692 116.645C480.029 121.481 474.167 129.687 466.84 140.824C454.531 159.581 436.506 189.622 419.508 226.843C404.121 260.401 391.665 295.57 382.433 331.179L375.546 357.556L401.044 318.43L401.19 317.698C409.836 286.485 420.973 255.565 434.015 225.964C450.721 188.303 471.236 151.668 494.976 117.085C498.346 112.249 498.639 111.81 498.2 109.758C498.346 109.905 497.174 106.388 494.096 106.388Z" fill="#390176"/>
<path d="M397.087 316.525C393.717 321.801 390.2 327.076 386.83 332.352C393.424 306.707 404.707 270.219 423.611 228.748C455.996 157.97 493.51 110.637 494.096 110.93C494.536 111.224 460.685 155.478 430.205 224.352C415.405 257.47 404.854 288.683 397.087 316.525Z" fill="#BABABA"/>
</svg>
